<svg xmlns="http://www.w3.org/2000/svg" xmlns:xlink="http://www.w3.org/1999/xlink" viewBox="0 0 920 151" version="1.1" width="500px" height="83px">
    <!-- Generator: Sketch 52.6 (67491) - http://www.bohemiancoding.com/sketch -->
    <title>toyota</title>
    <desc>Created with Sketch.</desc>
    <g id="toyota" stroke="undefined" stroke-width="1" fill="#000000FF" fill-rule="evenodd" fill-color-id="0" stroke-color-id="0" recolor-fill="true" recolor-stroke="true">
        <g fill="#000000FF" fill-rule="nonzero" id="Shape" fill-color-id="0" stroke-color-id="0" recolor-fill="true" recolor-stroke="true" stroke="undefined">
            <path d="M108.881845,143.315399 C96.7036647,135.703294 87.7274642,109.43549 87.7274642,78.218609 C87.7274642,77.0731684 87.7323083,75.9422271 87.7613732,74.8161188 L87.7710615,74.8306181 C53.891112,69.5190603 29.4136479,54.9666485 28.783909,37.7512083 L28.6870261,37.9541977 C20.3986942,48.2341645 15.6659646,60.1187146 15.6659646,72.781391 C15.6659646,110.044458 56.6619629,140.575041 108.663858,143.276734 L108.881845,143.315399 Z M6.45369745e-15,75.4975835 C6.45369745e-15,33.8074129 52.0067397,0 116.157751,0 C180.313606,0 232.320345,33.8074129 232.320345,75.4975835 C232.320345,117.192587 180.313606,151 116.157751,151 C52.0067397,151 0,117.192587 6.45369745e-15,75.4975835 Z M116.162595,10.8937682 C128.549073,10.8937682 139.085088,29.6412957 142.989469,55.7979387 L142.999158,55.754441 C167.098778,52.0136351 183.966091,43.3817495 183.966091,33.3337708 C183.966091,19.8543034 153.607835,8.93636975 116.162595,8.93636975 C78.7221988,8.93636975 48.3639427,19.8543034 48.3639427,33.3337708 C48.3639427,43.3817495 65.2312553,52.008802 89.326032,55.754441 L89.3405644,55.7979387 C93.2449452,29.6412957 103.78096,10.8937682 116.162595,10.8937682 Z M123.661331,143.271901 C175.663227,140.570208 216.664069,110.039625 216.664069,72.7765579 C216.664069,60.1138815 211.926495,48.2293314 203.643008,37.9493647 L203.541281,37.7463752 C202.916386,54.9618154 178.438922,69.5142272 144.554128,74.825785 L144.56866,74.8112857 C144.592881,75.937394 144.60257,77.0683353 144.60257,78.2137759 C144.60257,109.430656 135.621525,135.69846 123.448189,143.310566 L123.661331,143.271901 Z M116.162595,57.7360049 C121.538999,57.7424009 126.913095,57.5134148 132.269377,57.0497071 L132.264532,57.0545402 C129.697136,40.2934097 123.457877,28.4571904 116.167439,28.4571904 C108.877001,28.4571904 102.642586,40.2934097 100.070345,57.0545402 L100.065501,57.0497071 C105.418695,57.5111079 110.789464,57.74009 116.162595,57.7360049 Z M116.162595,119.821784 C125.487574,119.821784 133.097725,100.460455 133.499789,76.1838812 L133.548231,76.1983804 C121.983909,77.261378 110.346124,77.261378 98.7818029,76.1983804 L98.8302443,76.1838812 C99.2323083,100.460455 106.837616,119.821784 116.162595,119.821784 Z M592.739259,75.4975835 C592.739259,43.6330698 618.636057,17.7954102 650.573505,17.7954102 C682.525484,17.7954102 708.417439,43.6330698 708.417439,75.4975835 C708.417439,107.371763 682.52064,133.199757 650.573505,133.199757 C618.636057,133.199757 592.739259,107.371763 592.739259,75.4975835 Z M650.573505,112.040521 C668.409646,112.040521 682.874263,95.6757034 682.874263,75.4927504 C682.874263,55.3146305 668.409646,38.9498128 650.573505,38.9498128 C632.737363,38.9498128 618.282435,55.3146305 618.282435,75.4927504 C618.282435,95.6805364 632.742207,112.040521 650.573505,112.040521 Z M774.045914,41.8351631 L774.045914,130.580226 L749.670177,130.580226 L749.670177,41.8351631 L749.757372,41.8351631 L715.678812,41.8351631 L715.678812,21.7730372 L808.037279,21.7730372 L808.037279,41.8351631 L774.045914,41.8351631 Z M837.518745,106.100663 L837.499368,106.124828 L828.150168,130.585059 L799.681129,130.585059 L844.678391,21.7730372 L875.012426,21.7730372 L920,130.585059 L891.540649,130.585059 L882.191449,106.124828 L882.162384,106.100663 L837.518745,106.100663 Z M859.845409,87.7349486 L875.181971,87.7349486 L875.172283,87.7397817 L859.947136,47.915181 L859.738837,47.915181 L844.51369,87.7397817 L844.504002,87.7349486 L859.845409,87.7349486 Z M324.833825,41.8351631 L324.833825,130.580226 L300.462932,130.580226 L300.462932,41.8351631 L300.550126,41.8351631 L266.466723,41.8351631 L266.466723,21.7730372 L358.830034,21.7730372 L358.830034,41.8351631 L324.833825,41.8351631 Z M365.064448,75.4975835 C365.064448,43.6330698 390.961247,17.7954102 422.908382,17.7954102 C454.850674,17.7954102 480.747473,43.6330698 480.747473,75.4975835 C480.747473,107.371763 454.850674,133.199757 422.908382,133.199757 C390.961247,133.199757 365.064448,107.371763 365.064448,75.4975835 Z M422.908382,112.040521 C440.73968,112.040521 455.204297,95.6757034 455.204297,75.4927504 C455.204297,55.3146305 440.73968,38.9498128 422.908382,38.9498128 C405.072241,38.9498128 390.612468,55.3146305 390.612468,75.4927504 C390.612468,95.6805364 405.072241,112.040521 422.908382,112.040521 Z M536.736099,130.580226 L549.093513,130.580226 L549.093513,89.2670358 L591.610573,21.7730372 L563.151222,21.7730372 L536.736099,67.5084979 L510.330666,21.7730372 L481.871314,21.7730372 L524.38353,89.2670358 L524.38353,130.580226 L536.736099,130.580226 Z" fill-color-id="0" stroke-color-id="0" recolor-fill="true" recolor-stroke="true" fill="#000000FF" stroke="undefined"/>
        </g>
    </g>
</svg>